<?xml version="1.0" encoding="UTF-8" standalone="no"?><!DOCTYPE svg PUBLIC "-//W3C//DTD SVG 1.1//EN" "http://www.w3.org/Graphics/SVG/1.1/DTD/svg11.dtd"><svg width="100%" height="100%" viewBox="0 0 134 134" version="1.1" xmlns="http://www.w3.org/2000/svg" xmlns:xlink="http://www.w3.org/1999/xlink" xml:space="preserve" xmlns:serif="http://www.serif.com/" style="fill-rule:evenodd;clip-rule:evenodd;stroke-linejoin:round;stroke-miterlimit:2;"><rect id="Artboard1" x="0" y="0" width="133.333" height="133.333" style="fill:none;"/><g id="Artboard11" serif:id="Artboard1"><path d="M93.775,119.762c-10.625,7.983 -22.002,10.616 -34.016,8.908c-21.268,-3.025 -36.985,-17.526 -49.086,-39.364c-2.328,-4.202 -4.194,-8.76 -6.032,-13.333c-0.227,-0.565 -0.622,-1.102 -0.418,-1.848c0.664,-0.359 1,0.335 1.37,0.693c3.616,3.504 7.778,4.955 12.212,5.206c11.996,0.678 23.065,-3.686 33.711,-10.319c9.658,-6.018 18.027,-14.424 26.222,-23.151c5.007,-5.333 9.988,-10.709 14.951,-16.109c1.211,-1.317 2.508,-1.843 4.11,-1.986c2.477,-0.22 4.945,-0.288 7.343,-0.482c0.348,0.875 -0.072,1.179 -0.348,1.507c-11.692,13.891 -23.534,27.562 -37.078,38.507c-11.823,9.554 -24.644,15.737 -38.607,17.506c-5.994,0.759 -11.968,0.191 -17.716,-2.945c1.137,3.258 4.544,6.487 7.944,7.286c5.333,1.253 10.651,0.666 15.939,-0.615c14.285,-3.462 26.959,-11.506 38.532,-22.532c11.728,-11.174 22.558,-23.707 33.13,-36.611c0.294,-0.359 0.59,-0.72 0.911,-1.037c0.122,-0.121 0.315,-0.122 0.457,-0.171c0.361,0.431 0.177,0.869 0.067,1.268c-3.271,11.781 -5.893,23.876 -10.117,35.199c-6.523,17.486 -16.582,30.627 -30.103,39.278c-7.114,4.552 -14.798,6.494 -22.716,7.164c3.435,1.556 7.009,1.788 10.556,1.122c11.712,-2.201 21.322,-9.64 29.841,-19.845c10.052,-12.044 15.705,-27.324 19.956,-43.692c2.312,-8.9 4.72,-17.76 6.701,-26.796c0.169,-0.767 0.496,-1.522 0.208,-2.623c-8.21,-0.01 -16.432,1.546 -25.075,1.295c1.534,-1.964 3.022,-3.067 4.59,-3.961c6.507,-3.711 13.464,-5.649 20.233,-8.326c3.997,-1.58 8.037,-2.984 12.032,-4.575c1.393,-0.555 1.851,-0.046 2.01,1.747c1.103,12.412 2.276,24.813 3.398,37.223c0.169,1.863 0.19,3.749 0.28,5.624c-0.177,0.073 -0.353,0.146 -0.529,0.218c-3.64,-9.282 -7.28,-18.565 -10.95,-27.923c-1.011,0.858 -1.002,2.013 -1.186,2.955c-2.681,13.721 -5.493,27.397 -8.823,40.884c-3.175,12.858 -8.306,24.341 -15.778,33.84c-8.132,10.34 -17.762,17.462 -29.164,20.227c-0.282,0.068 -0.562,0.158 -0.84,0.251c-0.039,0.014 -0.063,0.107 -0.198,0.357c4.588,0.916 8.932,-0.011 13.177,-1.825c10.723,-4.584 19.142,-13.185 26.022,-24.524c6.259,-10.315 9.471,-22.288 11.765,-34.771c1.478,-8.035 2.821,-16.111 4.228,-24.168c0.06,-0.345 0.149,-0.682 0.244,-1.109c3.509,6.249 5.366,30.84 0.444,48.341c-4.549,16.177 -12.22,28.966 -23.804,38.035m-21.855,-40.838c1.094,-1.135 1.452,0.025 1.98,0.957c0.708,1.252 0.69,2.199 -0.286,3.241c-3.181,3.397 -6.551,6.458 -10.16,9.029c-9.874,7.034 -20.369,11.308 -32.179,11.172c0.64,0.437 0.918,0.686 1.225,0.824c0.766,0.344 1.532,0.703 2.32,0.939c5.193,1.559 10.319,0.643 15.303,-1.224c19.88,-7.451 34.184,-23.372 43.143,-47.239c0.482,-1.284 1.096,-2.573 1.095,-4.235c-1.027,0.501 -1.592,1.485 -2.265,2.266c-3.833,4.45 -7.626,8.953 -11.631,13.158c-10.261,10.773 -21.456,19.351 -34.239,24.265c-8.291,3.187 -16.713,4.474 -25.686,2.652c2.14,1.9 4.04,3.244 6.283,3.674c4.642,0.89 9.276,0.779 13.864,-0.397c11.568,-2.965 21.825,-9.523 31.233,-19.082Z" style="fill-rule:nonzero;"/></g></svg>